<svg width="239" height="69" viewBox="0 0 239 69" fill="none" xmlns="http://www.w3.org/2000/svg">
<g clip-path="url(#clip0_1455_62684)">
<g clip-path="url(#clip1_1455_62684)">
<path d="M34.6 69.2C53.7091 69.2 69.2 53.7091 69.2 34.6C69.2 15.4909 53.7091 0 34.6 0C15.4909 0 0 15.4909 0 34.6C0 53.7091 15.4909 69.2 34.6 69.2Z" fill="#4EA4F6"/>
<path d="M14.3981 34.3004C14.3981 34.3004 31.6981 27.2004 37.6981 24.7004C39.9981 23.7004 47.7981 20.5004 47.7981 20.5004C47.7981 20.5004 51.3981 19.1004 51.0981 22.5004C50.9981 23.9004 50.1981 28.8004 49.3981 34.1004C48.1981 41.6004 46.8981 49.8004 46.8981 49.8004C46.8981 49.8004 46.6981 52.1004 44.9981 52.5004C43.2981 52.9004 40.4981 51.1004 39.9981 50.7004C39.5981 50.4004 32.4981 45.9004 29.8981 43.7004C29.1981 43.1004 28.3981 41.9004 29.9981 40.5004C33.5981 37.2004 37.8981 33.1004 40.4981 30.5004C41.6981 29.3004 42.8981 26.5004 37.8981 29.9004C30.7981 34.8004 23.7981 39.4004 23.7981 39.4004C23.7981 39.4004 22.1981 40.4004 19.1981 39.5004C16.1981 38.6004 12.6981 37.4004 12.6981 37.4004C12.6981 37.4004 10.2981 35.9004 14.3981 34.3004Z" fill="white"/>
</g>
<path d="M154.373 51.7385C153.364 51.553 152.405 51.2717 151.426 50.9797C151.419 49.9512 151.509 48.8824 151.705 47.9067C160.501 50.4454 162.539 48.7832 162.689 43.1584V41.8071L161.553 42.8451C160.076 44.1956 158.629 44.6783 156.473 44.5399C152.191 44.2651 149.819 41.1339 149.812 35.7454C149.808 32.5232 150.52 30.4762 152.312 28.5607C154.702 26.0056 158.792 25.5142 161.652 27.4387L162.689 28.1366V27.4058V26.675L164.531 26.736L166.373 26.797L166.434 34.0602C166.529 45.3842 166.198 47.5953 164.083 49.7504C161.247 52.1436 158.35 52.1352 154.373 51.7385ZM159.946 40.5892C160.436 40.3395 161.253 39.751 161.763 39.2812L162.689 38.4272V34.8938V31.3604L162.029 30.8053C159.772 28.9059 157.345 28.7615 155.513 30.4174C154.324 31.4912 153.8 33.0413 153.784 35.5334C153.765 38.5435 154.413 40.068 156.037 40.8297C157.112 41.3343 158.674 41.2382 159.946 40.5892ZM106.672 42.9736C104.52 40.9211 103.507 37.7059 103.938 34.2955C104.288 31.5252 105.133 29.7189 106.795 28.1868C108.114 26.9714 109.352 26.4605 111.305 26.3266C116.062 26.0006 118.882 29.2453 118.896 35.0598L118.9 36.5861C115.269 36.6831 111.117 36.3571 107.742 36.8636C108.236 39.9905 110.496 42.3282 113.637 42.3745C115.524 42.3745 116.882 41.8956 118.696 41.5378L118.751 44.4175C118.751 44.4175 114.514 45.4237 112.9 45.4116C110.423 45.4216 108.071 44.2971 106.672 42.9736ZM115.109 33.0598C115.105 31.267 113.939 29.5831 112.516 29.3161C110.27 28.8948 108.549 30.1967 107.985 32.744L107.786 33.6387H111.448H115.11L115.109 33.0598ZM134.251 42.9736C132.099 40.9211 131.086 37.7059 131.517 34.2955C131.867 31.5252 132.712 29.7189 134.374 28.1868C135.693 26.9714 136.931 26.4605 138.884 26.3266C143.641 26.0006 146.461 29.2453 146.475 35.0598L146.479 36.5861C142.604 36.5361 138.891 36.5521 135.223 36.5221C135.442 40.2145 137.828 42.5658 141.216 42.3746C143.121 42.4116 144.793 41.8928 146.275 41.5381C146.605 41.7417 146.524 44.076 146.178 44.3635C145.7 44.7605 142.093 45.424 140.479 45.4119C138.002 45.4219 135.65 44.297 134.251 42.9736ZM142.688 33.0598C142.684 31.267 141.518 29.5831 140.095 29.3161C137.849 28.8948 136.128 30.1967 135.564 32.744L135.365 33.6387H139.027H142.689L142.688 33.0598ZM186.846 45.1406C184.212 44.1578 182.915 41.3243 183.779 38.4403C184.124 37.2874 185.444 35.8692 186.779 35.2158C188.042 34.5979 190.597 34.0781 192.426 34.067L193.636 34.0571V32.573C193.565 28.5636 190.397 28.8244 187.27 29.9595C186.43 30.2621 185.332 30.5122 185.129 30.5749C185.103 29.6343 185.005 28.9883 185.005 27.5491L186.742 26.9996C187.899 26.6334 189.182 26.41 190.588 26.3299C193.964 26.1375 195.789 26.8779 196.856 28.873C197.294 29.6931 197.326 30.0699 197.425 35.6721C197.531 41.5927 197.532 41.604 198.041 42.1459C198.347 42.4711 199.465 42.7865 199.808 42.7865C199.798 44.0223 199.941 43.9718 199.792 45.1311C199.301 45.2634 197.667 45.4278 197.058 45.3773C195.865 45.2783 195.125 44.7781 194.557 43.6848L194.253 43.1019L193.471 43.7279C191.666 45.1724 188.656 45.813 186.847 45.1379L186.846 45.1406ZM191.27 41.9725C191.734 41.8087 192.455 41.4535 192.872 41.1831L193.631 40.6915V38.5336V36.3756H192.728C190.604 36.3756 188.075 37.4653 187.556 38.6036C186.985 39.8578 187.463 41.348 188.62 41.9183C189.481 42.3427 190.175 42.3569 191.264 41.9723L191.27 41.9725ZM90.0574 34.0598V23.1124H85.7416H81.4258V21.6387V20.1651H92.0574H102.689V21.6387V23.1124H98.3731H94.0574V34.0598V45.0073H92.0574H90.0574V34.0598ZM123.531 31.8492V18.6914H125.426H127.321V31.8492V45.0073H125.426H123.531V31.8492ZM171.742 35.8492V26.675C172.97 26.716 174.247 26.659 175.475 26.699C175.463 27.4565 175.508 28.2111 175.552 28.9666C177.279 27.0688 179.111 26.5804 180.645 26.4169L182.057 26.2704V28.075V29.8797C179.689 29.1842 177.22 30.7499 176.091 32.2704C175.657 32.8729 175.631 33.1785 175.531 38.9021L175.426 44.9021C174.198 44.9431 172.97 44.983 171.742 45.024L171.742 35.8492ZM203.11 35.8492V26.6914C204.373 26.6914 205.636 26.6914 206.899 26.6914C206.899 27.5298 206.899 28.9932 206.899 29.8316C208.498 28.0349 210.432 26.3434 212.584 26.3755C215.215 26.2722 216.293 27.9728 217.467 29.86C220.756 26.1557 226.757 25.0911 228.611 29.4971C228.789 35.5143 228.686 37.7471 228.591 45C227.37 45.041 226.246 44.9839 225.025 45.0239C225.081 40.3433 225.013 35.052 224.899 30.6569C224.431 29.7358 223.562 29.012 222.063 29.4081C220.564 29.8043 219.209 30.9704 217.798 32.6171C217.798 36.6985 217.847 40.9265 217.847 45.0079H215.96H214.073C214.033 40.2243 213.992 35.4406 213.952 30.657C213.195 29.7817 212.591 29.2692 211.162 29.6098C209.733 29.9503 207.834 31.08 206.899 32.8729C206.899 36.9178 206.85 40.963 206.85 45.0079C205.587 45.0079 204.373 45.0079 203.11 45.0079C203.11 41.955 203.11 38.9022 203.11 35.8492Z" fill="black"/>
</g>
<defs>
<clipPath id="clip0_1455_62684">
<rect width="239" height="69" fill="white"/>
</clipPath>
<clipPath id="clip1_1455_62684">
<rect width="69.2" height="69.2" fill="white"/>
</clipPath>
</defs>
</svg>
